# Blender 4.4.0
# www.blender.org
mtllib mainLamp.mtl
o lamp
v 0.000000 -0.020000 -0.189952
v 0.000000 0.020000 -0.200000
v 0.037058 -0.020000 -0.186302
v 0.039018 0.020000 -0.196157
v 0.072691 -0.020000 -0.175492
v 0.076537 0.020000 -0.184776
v 0.105531 -0.020000 -0.157939
v 0.111114 0.020000 -0.166294
v 0.134316 -0.020000 -0.134316
v 0.141421 0.020000 -0.141421
v 0.157939 -0.020000 -0.105531
v 0.166294 0.020000 -0.111114
v 0.175492 -0.020000 -0.072691
v 0.184776 0.020000 -0.076537
v 0.186302 -0.020000 -0.037058
v 0.196157 0.020000 -0.039018
v 0.189952 -0.020000 0.000000
v 0.200000 0.020000 0.000000
v 0.186302 -0.020000 0.037058
v 0.196157 0.020000 0.039018
v 0.175492 -0.020000 0.072691
v 0.184776 0.020000 0.076537
v 0.157939 -0.020000 0.105531
v 0.166294 0.020000 0.111114
v 0.134316 -0.020000 0.134316
v 0.141421 0.020000 0.141421
v 0.105531 -0.020000 0.157939
v 0.111114 0.020000 0.166294
v 0.072691 -0.020000 0.175492
v 0.076537 0.020000 0.184776
v 0.037058 -0.020000 0.186302
v 0.039018 0.020000 0.196157
v 0.000000 -0.020000 0.189952
v 0.000000 0.020000 0.200000
v -0.037058 -0.020000 0.186302
v -0.039018 0.020000 0.196157
v -0.072691 -0.020000 0.175492
v -0.076537 0.020000 0.184776
v -0.105531 -0.020000 0.157939
v -0.111114 0.020000 0.166294
v -0.134316 -0.020000 0.134316
v -0.141421 0.020000 0.141421
v -0.157939 -0.020000 0.105531
v -0.166294 0.020000 0.111114
v -0.175492 -0.020000 0.072691
v -0.184776 0.020000 0.076537
v -0.186302 -0.020000 0.037058
v -0.196157 0.020000 0.039018
v -0.189952 -0.020000 0.000000
v -0.200000 0.020000 0.000000
v -0.186302 -0.020000 -0.037058
v -0.196157 0.020000 -0.039018
v -0.175492 -0.020000 -0.072691
v -0.184776 0.020000 -0.076537
v -0.157939 -0.020000 -0.105531
v -0.166294 0.020000 -0.111114
v -0.134316 -0.020000 -0.134316
v -0.141421 0.020000 -0.141421
v -0.105531 -0.020000 -0.157939
v -0.111114 0.020000 -0.166294
v -0.072691 -0.020000 -0.175492
v -0.076537 0.020000 -0.184776
v -0.037058 -0.020000 -0.186302
v -0.039018 0.020000 -0.196157
v 0.000000 -0.020000 -0.200000
v 0.039018 -0.020000 -0.196157
v 0.076537 -0.020000 -0.184776
v 0.111114 -0.020000 -0.166294
v 0.141421 -0.020000 -0.141421
v 0.166294 -0.020000 -0.111114
v 0.184776 -0.020000 -0.076537
v 0.196157 -0.020000 -0.039018
v 0.200000 -0.020000 0.000000
v 0.196157 -0.020000 0.039018
v 0.184776 -0.020000 0.076537
v 0.166294 -0.020000 0.111114
v 0.141421 -0.020000 0.141421
v 0.111114 -0.020000 0.166294
v 0.076537 -0.020000 0.184776
v 0.039018 -0.020000 0.196157
v 0.000000 -0.020000 0.200000
v -0.039018 -0.020000 0.196157
v -0.076537 -0.020000 0.184776
v -0.111114 -0.020000 0.166294
v -0.141421 -0.020000 0.141421
v -0.166294 -0.020000 0.111114
v -0.184776 -0.020000 0.076537
v -0.196157 -0.020000 0.039018
v -0.200000 -0.020000 0.000000
v -0.196157 -0.020000 -0.039018
v -0.184776 -0.020000 -0.076537
v -0.166294 -0.020000 -0.111114
v -0.141421 -0.020000 -0.141421
v -0.111114 -0.020000 -0.166294
v -0.076537 -0.020000 -0.184776
v -0.039018 -0.020000 -0.196157
v 0.000000 -0.020000 -0.200000
v 0.039018 -0.020000 -0.196157
v 0.076537 -0.020000 -0.184776
v 0.111114 -0.020000 -0.166294
v 0.141421 -0.020000 -0.141421
v 0.166294 -0.020000 -0.111114
v 0.184776 -0.020000 -0.076537
v 0.196157 -0.020000 -0.039018
v 0.200000 -0.020000 0.000000
v 0.196157 -0.020000 0.039018
v 0.184776 -0.020000 0.076537
v 0.166294 -0.020000 0.111114
v 0.141421 -0.020000 0.141421
v 0.111114 -0.020000 0.166294
v 0.076537 -0.020000 0.184776
v 0.039018 -0.020000 0.196157
v 0.000000 -0.020000 0.200000
v -0.039018 -0.020000 0.196157
v -0.076537 -0.020000 0.184776
v -0.111114 -0.020000 0.166294
v -0.141421 -0.020000 0.141421
v -0.166294 -0.020000 0.111114
v -0.184776 -0.020000 0.076537
v -0.196157 -0.020000 0.039018
v -0.200000 -0.020000 0.000000
v -0.196157 -0.020000 -0.039018
v -0.184776 -0.020000 -0.076537
v -0.166294 -0.020000 -0.111114
v -0.141421 -0.020000 -0.141421
v -0.111114 -0.020000 -0.166294
v -0.076537 -0.020000 -0.184776
v -0.039018 -0.020000 -0.196157
v 0.000000 -0.020000 -0.189952
v 0.037058 -0.020000 -0.186302
v 0.072691 -0.020000 -0.175492
v 0.105531 -0.020000 -0.157939
v 0.134316 -0.020000 -0.134316
v 0.157939 -0.020000 -0.105531
v 0.175492 -0.020000 -0.072691
v 0.186302 -0.020000 -0.037058
v 0.189952 -0.020000 0.000000
v 0.186302 -0.020000 0.037058
v 0.175492 -0.020000 0.072691
v 0.157939 -0.020000 0.105531
v 0.134316 -0.020000 0.134316
v 0.105531 -0.020000 0.157939
v 0.072691 -0.020000 0.175492
v 0.037058 -0.020000 0.186302
v 0.000000 -0.020000 0.189952
v -0.037058 -0.020000 0.186302
v -0.072691 -0.020000 0.175492
v -0.105531 -0.020000 0.157939
v -0.134316 -0.020000 0.134316
v -0.157939 -0.020000 0.105531
v -0.175492 -0.020000 0.072691
v -0.186302 -0.020000 0.037058
v -0.189952 -0.020000 0.000000
v -0.186302 -0.020000 -0.037058
v -0.175492 -0.020000 -0.072691
v -0.157939 -0.020000 -0.105531
v -0.134316 -0.020000 -0.134316
v -0.105531 -0.020000 -0.157939
v -0.072691 -0.020000 -0.175492
v -0.037058 -0.020000 -0.186302
v 0.000000 -0.030000 -0.200000
v 0.039018 -0.030000 -0.196157
v 0.076537 -0.030000 -0.184776
v 0.111114 -0.030000 -0.166294
v 0.141421 -0.030000 -0.141421
v 0.166294 -0.030000 -0.111114
v 0.184776 -0.030000 -0.076537
v 0.196157 -0.030000 -0.039018
v 0.200000 -0.030000 0.000000
v 0.196157 -0.030000 0.039018
v 0.184776 -0.030000 0.076537
v 0.166294 -0.030000 0.111114
v 0.141421 -0.030000 0.141421
v 0.111114 -0.030000 0.166294
v 0.076537 -0.030000 0.184776
v 0.039018 -0.030000 0.196157
v 0.000000 -0.030000 0.200000
v -0.039018 -0.030000 0.196157
v -0.076537 -0.030000 0.184776
v -0.111114 -0.030000 0.166294
v -0.141421 -0.030000 0.141421
v -0.166294 -0.030000 0.111114
v -0.184776 -0.030000 0.076537
v -0.196157 -0.030000 0.039018
v -0.200000 -0.030000 0.000000
v -0.196157 -0.030000 -0.039018
v -0.184776 -0.030000 -0.076537
v -0.166294 -0.030000 -0.111114
v -0.141421 -0.030000 -0.141421
v -0.111114 -0.030000 -0.166294
v -0.076537 -0.030000 -0.184776
v -0.039018 -0.030000 -0.196157
v 0.000000 -0.030000 -0.189952
v 0.037058 -0.030000 -0.186302
v 0.072691 -0.030000 -0.175492
v 0.105531 -0.030000 -0.157939
v 0.134316 -0.030000 -0.134316
v 0.157939 -0.030000 -0.105531
v 0.175492 -0.030000 -0.072691
v 0.186302 -0.030000 -0.037058
v 0.189952 -0.030000 0.000000
v 0.186302 -0.030000 0.037058
v 0.175492 -0.030000 0.072691
v 0.157939 -0.030000 0.105531
v 0.134316 -0.030000 0.134316
v 0.105531 -0.030000 0.157939
v 0.072691 -0.030000 0.175492
v 0.037058 -0.030000 0.186302
v 0.000000 -0.030000 0.189952
v -0.037058 -0.030000 0.186302
v -0.072691 -0.030000 0.175492
v -0.105531 -0.030000 0.157939
v -0.134316 -0.030000 0.134316
v -0.157939 -0.030000 0.105531
v -0.175492 -0.030000 0.072691
v -0.186302 -0.030000 0.037058
v -0.189952 -0.030000 0.000000
v -0.186302 -0.030000 -0.037058
v -0.175492 -0.030000 -0.072691
v -0.157939 -0.030000 -0.105531
v -0.134316 -0.030000 -0.134316
v -0.105531 -0.030000 -0.157939
v -0.072691 -0.030000 -0.175492
v -0.037058 -0.030000 -0.186302
vn 0.0980 -0.0000 -0.9952
vn 0.2903 -0.0000 -0.9569
vn 0.4714 -0.0000 -0.8819
vn 0.6344 -0.0000 -0.7730
vn 0.7730 -0.0000 -0.6344
vn 0.8819 -0.0000 -0.4714
vn 0.9569 -0.0000 -0.2903
vn 0.9952 -0.0000 -0.0980
vn 0.9952 -0.0000 0.0980
vn 0.9569 -0.0000 0.2903
vn 0.8819 -0.0000 0.4714
vn 0.7730 -0.0000 0.6344
vn 0.6344 -0.0000 0.7730
vn 0.4714 -0.0000 0.8819
vn 0.2903 -0.0000 0.9569
vn 0.0980 -0.0000 0.9952
vn -0.0980 -0.0000 0.9952
vn -0.2903 -0.0000 0.9569
vn -0.4714 -0.0000 0.8819
vn -0.6344 -0.0000 0.7730
vn -0.7730 -0.0000 0.6344
vn -0.8819 -0.0000 0.4714
vn -0.9569 -0.0000 0.2903
vn -0.9952 -0.0000 0.0980
vn -0.9952 -0.0000 -0.0980
vn -0.9569 -0.0000 -0.2903
vn -0.8819 -0.0000 -0.4714
vn -0.7730 -0.0000 -0.6344
vn -0.6344 -0.0000 -0.7730
vn -0.4714 -0.0000 -0.8819
vn -0.0000 1.0000 -0.0000
vn -0.2903 -0.0000 -0.9569
vn -0.0980 -0.0000 -0.9952
vn -0.0000 -1.0000 -0.0000
vt 1.000000 1.000000
vt 0.968750 0.500000
vt 1.000000 0.500000
vt 0.968750 1.000000
vt 0.937500 0.500000
vt 0.937500 1.000000
vt 0.906250 0.500000
vt 0.906250 1.000000
vt 0.875000 0.500000
vt 0.875000 1.000000
vt 0.843750 0.500000
vt 0.843750 1.000000
vt 0.812500 0.500000
vt 0.812500 1.000000
vt 0.781250 0.500000
vt 0.781250 1.000000
vt 0.750000 0.500000
vt 0.750000 1.000000
vt 0.718750 0.500000
vt 0.718750 1.000000
vt 0.687500 0.500000
vt 0.687500 1.000000
vt 0.656250 0.500000
vt 0.656250 1.000000
vt 0.625000 0.500000
vt 0.625000 1.000000
vt 0.593750 0.500000
vt 0.593750 1.000000
vt 0.562500 0.500000
vt 0.562500 1.000000
vt 0.531250 0.500000
vt 0.531250 1.000000
vt 0.500000 0.500000
vt 0.500000 1.000000
vt 0.468750 0.500000
vt 0.468750 1.000000
vt 0.437500 0.500000
vt 0.437500 1.000000
vt 0.406250 0.500000
vt 0.406250 1.000000
vt 0.375000 0.500000
vt 0.375000 1.000000
vt 0.343750 0.500000
vt 0.343750 1.000000
vt 0.312500 0.500000
vt 0.312500 1.000000
vt 0.281250 0.500000
vt 0.281250 1.000000
vt 0.250000 0.500000
vt 0.250000 1.000000
vt 0.218750 0.500000
vt 0.218750 1.000000
vt 0.187500 0.500000
vt 0.187500 1.000000
vt 0.156250 0.500000
vt 0.156250 1.000000
vt 0.125000 0.500000
vt 0.125000 1.000000
vt 0.093750 0.500000
vt 0.093750 1.000000
vt 0.062500 0.500000
vt 0.158156 0.028269
vt 0.471731 0.158156
vt 0.341844 0.471731
vt 0.062500 1.000000
vt 0.031250 0.500000
vt 0.031250 1.000000
vt 0.000000 0.500000
vt 0.794469 0.026438
vt 0.526438 0.205531
vt 0.705531 0.473562
vt 0.560473 0.123362
vt 0.588821 0.088821
vt 0.623362 0.060473
vt 0.662770 0.039409
vt 0.705531 0.026438
vt 0.750000 0.022058
vt 0.837230 0.039409
vt 0.876638 0.060473
vt 0.911179 0.088821
vt 0.939527 0.123362
vt 0.960591 0.162770
vt 0.973562 0.205531
vt 0.977942 0.250000
vt 0.973562 0.294469
vt 0.560473 0.376638
vt 0.588821 0.411179
vt 0.750000 0.477942
vt 0.794469 0.473562
vt 0.539409 0.337230
vt 0.526438 0.294469
vt 0.522058 0.250000
vt 0.539409 0.162770
vt 0.837230 0.460591
vt 0.623362 0.439527
vt 0.876638 0.439527
vt 0.662770 0.460591
vt 0.911179 0.411179
vt 0.939527 0.376638
vt 0.960591 0.337230
vt 0.796822 0.485388
vt 0.841844 0.471731
vt 0.883337 0.449553
vt 0.919706 0.419706
vt 0.949553 0.383337
vt 0.971731 0.341844
vt 0.985388 0.296822
vt 0.990000 0.250000
vt 0.985388 0.203178
vt 0.971731 0.158156
vt 0.949553 0.116663
vt 0.919706 0.080294
vt 0.883337 0.050447
vt 0.841844 0.028269
vt 0.796822 0.014612
vt 0.750000 0.010000
vt 0.703178 0.014612
vt 0.658156 0.028269
vt 0.616663 0.050447
vt 0.580294 0.080294
vt 0.550447 0.116663
vt 0.528269 0.158156
vt 0.514612 0.203178
vt 0.510000 0.250000
vt 0.514612 0.296822
vt 0.528269 0.341844
vt 0.550447 0.383337
vt 0.580294 0.419706
vt 0.616663 0.449553
vt 0.658156 0.471731
vt 0.703178 0.485388
vt 0.750000 0.490000
vt 0.296822 0.485388
vt 0.250000 0.490000
vt 0.203178 0.485388
vt 0.158156 0.471731
vt 0.116663 0.449553
vt 0.080294 0.419706
vt 0.050447 0.383337
vt 0.028269 0.341844
vt 0.014612 0.296822
vt 0.010000 0.250000
vt 0.014612 0.203178
vt 0.028269 0.158156
vt 0.050447 0.116663
vt 0.080294 0.080294
vt 0.116663 0.050447
vt 0.203178 0.014612
vt 0.250000 0.010000
vt 0.296822 0.014612
vt 0.341844 0.028269
vt 0.383337 0.050447
vt 0.419706 0.080294
vt 0.449553 0.116663
vt 0.485388 0.203178
vt 0.490000 0.250000
vt 0.485388 0.296822
vt 0.471731 0.341844
vt 0.449553 0.383337
vt 0.419706 0.419706
vt 0.383337 0.449553
vt 0.000000 1.000000
s 0
usemtl light
f 31/69/34 47/70/34 63/71/34
f 63/71/34 1/88/34 3/89/34
f 3/89/34 5/94/34 7/96/34
f 7/96/34 9/98/34 11/99/34
f 11/99/34 13/100/34 15/85/34
f 15/85/34 17/84/34 19/83/34
f 19/83/34 21/82/34 23/81/34
f 23/81/34 25/80/34 27/79/34
f 27/79/34 29/78/34 31/69/34
f 31/69/34 33/77/34 35/76/34
f 35/76/34 37/75/34 39/74/34
f 39/74/34 41/73/34 43/72/34
f 43/72/34 45/93/34 47/70/34
f 47/70/34 49/92/34 51/91/34
f 51/91/34 53/90/34 55/86/34
f 55/86/34 57/87/34 59/95/34
f 59/95/34 61/97/34 63/71/34
f 63/71/34 3/89/34 7/96/34
f 7/96/34 11/99/34 15/85/34
f 15/85/34 19/83/34 23/81/34
f 23/81/34 27/79/34 31/69/34
f 31/69/34 35/76/34 39/74/34
f 39/74/34 43/72/34 47/70/34
f 47/70/34 51/91/34 55/86/34
f 55/86/34 59/95/34 63/71/34
f 63/71/34 7/96/34 15/85/34
f 15/85/34 23/81/34 31/69/34
f 31/69/34 39/74/34 47/70/34
f 47/70/34 55/86/34 63/71/34
f 63/71/34 15/85/34 31/69/34
usemtl socket
f 2/1/1 66/2/1 65/3/1
f 4/4/2 67/5/2 66/2/2
f 6/6/3 68/7/3 67/5/3
f 8/8/4 69/9/4 68/7/4
f 10/10/5 70/11/5 69/9/5
f 12/12/6 71/13/6 70/11/6
f 14/14/7 72/15/7 71/13/7
f 16/16/8 73/17/8 72/15/8
f 18/18/9 74/19/9 73/17/9
f 20/20/10 75/21/10 74/19/10
f 22/22/11 76/23/11 75/21/11
f 24/24/12 77/25/12 76/23/12
f 26/26/13 78/27/13 77/25/13
f 28/28/14 79/29/14 78/27/14
f 30/30/15 80/31/15 79/29/15
f 32/32/16 81/33/16 80/31/16
f 34/34/17 82/35/17 81/33/17
f 36/36/18 83/37/18 82/35/18
f 38/38/19 84/39/19 83/37/19
f 40/40/20 85/41/20 84/39/20
f 42/42/21 86/43/21 85/41/21
f 44/44/22 87/45/22 86/43/22
f 46/46/23 88/47/23 87/45/23
f 48/48/24 89/49/24 88/47/24
f 50/50/25 90/51/25 89/49/25
f 52/52/26 91/53/26 90/51/26
f 54/54/27 92/55/27 91/53/27
f 56/56/28 93/57/28 92/55/28
f 58/58/29 94/59/29 93/57/29
f 60/60/30 95/61/30 94/59/30
f 38/62/31 22/63/31 6/64/31
f 62/65/32 96/66/32 95/61/32
f 64/67/33 65/68/33 96/66/33
f 43/72/31 149/73/31 150/72/31
f 77/25/31 110/27/31 109/25/31
f 41/73/31 148/74/31 149/73/31
f 68/7/31 101/9/31 100/7/31
f 94/59/31 127/61/31 126/59/31
f 39/74/31 147/75/31 148/74/31
f 85/41/31 118/43/31 117/41/31
f 37/75/31 146/76/31 147/75/31
f 76/23/31 109/25/31 108/23/31
f 35/76/31 145/77/31 146/76/31
f 67/5/31 100/7/31 99/5/31
f 93/57/31 126/59/31 125/57/31
f 33/77/31 144/69/31 145/77/31
f 84/39/31 117/41/31 116/39/31
f 31/69/31 143/78/31 144/69/31
f 75/21/31 108/23/31 107/21/31
f 29/78/31 142/79/31 143/78/31
f 66/2/31 99/5/31 98/2/31
f 92/55/31 125/57/31 124/55/31
f 27/79/31 141/80/31 142/79/31
f 83/37/31 116/39/31 115/37/31
f 25/80/31 140/81/31 141/80/31
f 74/19/31 107/21/31 106/19/31
f 23/81/31 139/82/31 140/81/31
f 91/53/31 124/55/31 123/53/31
f 21/82/31 138/83/31 139/82/31
f 65/3/31 98/2/31 97/3/31
f 82/35/31 115/37/31 114/35/31
f 19/83/31 137/84/31 138/83/31
f 73/17/31 106/19/31 105/17/31
f 17/84/31 136/85/31 137/84/31
f 90/51/31 123/53/31 122/51/31
f 156/86/12 221/87/12 157/87/12
f 104/15/7 167/13/7 103/13/7
f 129/88/17 194/89/17 130/89/17
f 155/90/11 220/86/11 156/86/11
f 103/13/6 166/11/6 102/11/6
f 97/68/33 192/66/33 128/66/33
f 154/91/10 219/90/10 155/90/10
f 102/11/5 165/9/5 101/9/5
f 128/66/32 191/61/32 127/61/32
f 153/92/9 218/91/9 154/91/9
f 101/9/4 164/7/4 100/7/4
f 127/61/30 190/59/30 126/59/30
f 152/70/8 217/92/8 153/92/8
f 100/7/3 163/5/3 99/5/3
f 126/59/29 189/57/29 125/57/29
f 151/93/7 216/70/7 152/70/7
f 99/5/2 162/2/2 98/2/2
f 125/57/28 188/55/28 124/55/28
f 150/72/6 215/93/6 151/93/6
f 98/2/1 161/3/1 97/3/1
f 124/55/27 187/53/27 123/53/27
f 149/73/5 214/72/5 150/72/5
f 123/53/26 186/51/26 122/51/26
f 148/74/4 213/73/4 149/73/4
f 122/51/25 185/49/25 121/49/25
f 147/75/3 212/74/3 148/74/3
f 121/49/24 184/47/24 120/47/24
f 146/76/2 211/75/2 147/75/2
f 120/47/23 183/45/23 119/45/23
f 145/77/1 210/76/1 146/76/1
f 119/45/22 182/43/22 118/43/22
f 144/69/33 209/77/33 145/77/33
f 86/43/31 119/45/31 118/43/31
f 45/93/31 150/72/31 151/93/31
f 95/61/31 128/66/31 127/61/31
f 69/9/31 102/11/31 101/9/31
f 47/70/31 151/93/31 152/70/31
f 78/27/31 111/29/31 110/27/31
f 49/92/31 152/70/31 153/92/31
f 87/45/31 120/47/31 119/45/31
f 51/91/31 153/92/31 154/91/31
f 96/66/31 97/68/31 128/66/31
f 70/11/31 103/13/31 102/11/31
f 53/90/31 154/91/31 155/90/31
f 79/29/31 112/31/31 111/29/31
f 55/86/31 155/90/31 156/86/31
f 3/89/31 129/88/31 130/89/31
f 88/47/31 121/49/31 120/47/31
f 57/87/31 156/86/31 157/87/31
f 5/94/31 130/89/31 131/94/31
f 71/13/31 104/15/31 103/13/31
f 59/95/31 157/87/31 158/95/31
f 7/96/31 131/94/31 132/96/31
f 80/31/31 113/33/31 112/31/31
f 61/97/31 158/95/31 159/97/31
f 9/98/31 132/96/31 133/98/31
f 89/49/31 122/51/31 121/49/31
f 63/71/31 159/97/31 160/71/31
f 11/99/31 133/98/31 134/99/31
f 72/15/31 105/17/31 104/15/31
f 1/88/31 160/71/31 129/88/31
f 13/100/31 134/99/31 135/100/31
f 81/33/31 114/35/31 113/33/31
f 15/85/31 135/100/31 136/85/31
f 193/88/34 162/101/34 194/89/34
f 194/89/34 163/102/34 195/94/34
f 195/94/34 164/103/34 196/96/34
f 197/98/34 164/103/34 165/104/34
f 197/98/34 166/105/34 198/99/34
f 199/100/34 166/105/34 167/106/34
f 199/100/34 168/107/34 200/85/34
f 201/84/34 168/107/34 169/108/34
f 201/84/34 170/109/34 202/83/34
f 202/83/34 171/110/34 203/82/34
f 203/82/34 172/111/34 204/81/34
f 205/80/34 172/111/34 173/112/34
f 205/80/34 174/113/34 206/79/34
f 207/78/34 174/113/34 175/114/34
f 207/78/34 176/115/34 208/69/34
f 209/77/34 176/115/34 177/116/34
f 209/77/34 178/117/34 210/76/34
f 210/76/34 179/118/34 211/75/34
f 211/75/34 180/119/34 212/74/34
f 213/73/34 180/119/34 181/120/34
f 213/73/34 182/121/34 214/72/34
f 215/93/34 182/121/34 183/122/34
f 215/93/34 184/123/34 216/70/34
f 217/92/34 184/123/34 185/124/34
f 217/92/34 186/125/34 218/91/34
f 218/91/34 187/126/34 219/90/34
f 219/90/34 188/127/34 220/86/34
f 221/87/34 188/127/34 189/128/34
f 221/87/34 190/129/34 222/95/34
f 223/97/34 190/129/34 191/130/34
f 223/97/34 192/131/34 224/71/34
f 193/88/34 192/131/34 161/132/34
f 130/89/18 195/94/18 131/94/18
f 105/17/8 168/15/8 104/15/8
f 157/87/13 222/95/13 158/95/13
f 131/94/19 196/96/19 132/96/19
f 106/19/9 169/17/9 105/17/9
f 158/95/14 223/97/14 159/97/14
f 132/96/20 197/98/20 133/98/20
f 107/21/10 170/19/10 106/19/10
f 159/97/15 224/71/15 160/71/15
f 133/98/21 198/99/21 134/99/21
f 108/23/11 171/21/11 107/21/11
f 160/71/16 193/88/16 129/88/16
f 134/99/22 199/100/22 135/100/22
f 109/25/12 172/23/12 108/23/12
f 135/100/23 200/85/23 136/85/23
f 110/27/13 173/25/13 109/25/13
f 136/85/24 201/84/24 137/84/24
f 111/29/14 174/27/14 110/27/14
f 137/84/25 202/83/25 138/83/25
f 112/31/15 175/29/15 111/29/15
f 138/83/26 203/82/26 139/82/26
f 113/33/16 176/31/16 112/31/16
f 139/82/27 204/81/27 140/81/27
f 114/35/17 177/33/17 113/33/17
f 140/81/28 205/80/28 141/80/28
f 115/37/18 178/35/18 114/35/18
f 141/80/29 206/79/29 142/79/29
f 116/39/19 179/37/19 115/37/19
f 142/79/30 207/78/30 143/78/30
f 117/41/20 180/39/20 116/39/20
f 143/78/32 208/69/32 144/69/32
f 118/43/21 181/41/21 117/41/21
f 2/1/1 4/4/1 66/2/1
f 4/4/2 6/6/2 67/5/2
f 6/6/3 8/8/3 68/7/3
f 8/8/4 10/10/4 69/9/4
f 10/10/5 12/12/5 70/11/5
f 12/12/6 14/14/6 71/13/6
f 14/14/7 16/16/7 72/15/7
f 16/16/8 18/18/8 73/17/8
f 18/18/9 20/20/9 74/19/9
f 20/20/10 22/22/10 75/21/10
f 22/22/11 24/24/11 76/23/11
f 24/24/12 26/26/12 77/25/12
f 26/26/13 28/28/13 78/27/13
f 28/28/14 30/30/14 79/29/14
f 30/30/15 32/32/15 80/31/15
f 32/32/16 34/34/16 81/33/16
f 34/34/17 36/36/17 82/35/17
f 36/36/18 38/38/18 83/37/18
f 38/38/19 40/40/19 84/39/19
f 40/40/20 42/42/20 85/41/20
f 42/42/21 44/44/21 86/43/21
f 44/44/22 46/46/22 87/45/22
f 46/46/23 48/48/23 88/47/23
f 48/48/24 50/50/24 89/49/24
f 50/50/25 52/52/25 90/51/25
f 52/52/26 54/54/26 91/53/26
f 54/54/27 56/56/27 92/55/27
f 56/56/28 58/58/28 93/57/28
f 58/58/29 60/60/29 94/59/29
f 60/60/30 62/65/30 95/61/30
f 6/64/31 4/133/31 2/134/31
f 2/134/31 64/135/31 62/136/31
f 62/136/31 60/137/31 58/138/31
f 58/138/31 56/139/31 54/140/31
f 54/140/31 52/141/31 50/142/31
f 50/142/31 48/143/31 46/144/31
f 46/144/31 44/145/31 42/146/31
f 42/146/31 40/147/31 38/62/31
f 38/62/31 36/148/31 34/149/31
f 34/149/31 32/150/31 30/151/31
f 30/151/31 28/152/31 26/153/31
f 26/153/31 24/154/31 22/63/31
f 22/63/31 20/155/31 18/156/31
f 18/156/31 16/157/31 14/158/31
f 14/158/31 12/159/31 10/160/31
f 10/160/31 8/161/31 6/64/31
f 6/64/31 2/134/31 62/136/31
f 62/136/31 58/138/31 54/140/31
f 54/140/31 50/142/31 46/144/31
f 46/144/31 42/146/31 38/62/31
f 38/62/31 34/149/31 30/151/31
f 30/151/31 26/153/31 22/63/31
f 22/63/31 18/156/31 14/158/31
f 14/158/31 10/160/31 6/64/31
f 6/64/31 62/136/31 54/140/31
f 54/140/31 46/144/31 38/62/31
f 38/62/31 30/151/31 22/63/31
f 22/63/31 14/158/31 6/64/31
f 6/64/31 54/140/31 38/62/31
f 62/65/32 64/67/32 96/66/32
f 64/67/33 2/162/33 65/68/33
f 43/72/31 41/73/31 149/73/31
f 77/25/31 78/27/31 110/27/31
f 41/73/31 39/74/31 148/74/31
f 68/7/31 69/9/31 101/9/31
f 94/59/31 95/61/31 127/61/31
f 39/74/31 37/75/31 147/75/31
f 85/41/31 86/43/31 118/43/31
f 37/75/31 35/76/31 146/76/31
f 76/23/31 77/25/31 109/25/31
f 35/76/31 33/77/31 145/77/31
f 67/5/31 68/7/31 100/7/31
f 93/57/31 94/59/31 126/59/31
f 33/77/31 31/69/31 144/69/31
f 84/39/31 85/41/31 117/41/31
f 31/69/31 29/78/31 143/78/31
f 75/21/31 76/23/31 108/23/31
f 29/78/31 27/79/31 142/79/31
f 66/2/31 67/5/31 99/5/31
f 92/55/31 93/57/31 125/57/31
f 27/79/31 25/80/31 141/80/31
f 83/37/31 84/39/31 116/39/31
f 25/80/31 23/81/31 140/81/31
f 74/19/31 75/21/31 107/21/31
f 23/81/31 21/82/31 139/82/31
f 91/53/31 92/55/31 124/55/31
f 21/82/31 19/83/31 138/83/31
f 65/3/31 66/2/31 98/2/31
f 82/35/31 83/37/31 115/37/31
f 19/83/31 17/84/31 137/84/31
f 73/17/31 74/19/31 106/19/31
f 17/84/31 15/85/31 136/85/31
f 90/51/31 91/53/31 123/53/31
f 156/86/12 220/86/12 221/87/12
f 104/15/7 168/15/7 167/13/7
f 129/88/17 193/88/17 194/89/17
f 155/90/11 219/90/11 220/86/11
f 103/13/6 167/13/6 166/11/6
f 97/68/33 161/68/33 192/66/33
f 154/91/10 218/91/10 219/90/10
f 102/11/5 166/11/5 165/9/5
f 128/66/32 192/66/32 191/61/32
f 153/92/9 217/92/9 218/91/9
f 101/9/4 165/9/4 164/7/4
f 127/61/30 191/61/30 190/59/30
f 152/70/8 216/70/8 217/92/8
f 100/7/3 164/7/3 163/5/3
f 126/59/29 190/59/29 189/57/29
f 151/93/7 215/93/7 216/70/7
f 99/5/2 163/5/2 162/2/2
f 125/57/28 189/57/28 188/55/28
f 150/72/6 214/72/6 215/93/6
f 98/2/1 162/2/1 161/3/1
f 124/55/27 188/55/27 187/53/27
f 149/73/5 213/73/5 214/72/5
f 123/53/26 187/53/26 186/51/26
f 148/74/4 212/74/4 213/73/4
f 122/51/25 186/51/25 185/49/25
f 147/75/3 211/75/3 212/74/3
f 121/49/24 185/49/24 184/47/24
f 146/76/2 210/76/2 211/75/2
f 120/47/23 184/47/23 183/45/23
f 145/77/1 209/77/1 210/76/1
f 119/45/22 183/45/22 182/43/22
f 144/69/33 208/69/33 209/77/33
f 86/43/31 87/45/31 119/45/31
f 45/93/31 43/72/31 150/72/31
f 95/61/31 96/66/31 128/66/31
f 69/9/31 70/11/31 102/11/31
f 47/70/31 45/93/31 151/93/31
f 78/27/31 79/29/31 111/29/31
f 49/92/31 47/70/31 152/70/31
f 87/45/31 88/47/31 120/47/31
f 51/91/31 49/92/31 153/92/31
f 96/66/31 65/68/31 97/68/31
f 70/11/31 71/13/31 103/13/31
f 53/90/31 51/91/31 154/91/31
f 79/29/31 80/31/31 112/31/31
f 55/86/31 53/90/31 155/90/31
f 3/89/31 1/88/31 129/88/31
f 88/47/31 89/49/31 121/49/31
f 57/87/31 55/86/31 156/86/31
f 5/94/31 3/89/31 130/89/31
f 71/13/31 72/15/31 104/15/31
f 59/95/31 57/87/31 157/87/31
f 7/96/31 5/94/31 131/94/31
f 80/31/31 81/33/31 113/33/31
f 61/97/31 59/95/31 158/95/31
f 9/98/31 7/96/31 132/96/31
f 89/49/31 90/51/31 122/51/31
f 63/71/31 61/97/31 159/97/31
f 11/99/31 9/98/31 133/98/31
f 72/15/31 73/17/31 105/17/31
f 1/88/31 63/71/31 160/71/31
f 13/100/31 11/99/31 134/99/31
f 81/33/31 82/35/31 114/35/31
f 15/85/31 13/100/31 135/100/31
f 193/88/34 161/132/34 162/101/34
f 194/89/34 162/101/34 163/102/34
f 195/94/34 163/102/34 164/103/34
f 197/98/34 196/96/34 164/103/34
f 197/98/34 165/104/34 166/105/34
f 199/100/34 198/99/34 166/105/34
f 199/100/34 167/106/34 168/107/34
f 201/84/34 200/85/34 168/107/34
f 201/84/34 169/108/34 170/109/34
f 202/83/34 170/109/34 171/110/34
f 203/82/34 171/110/34 172/111/34
f 205/80/34 204/81/34 172/111/34
f 205/80/34 173/112/34 174/113/34
f 207/78/34 206/79/34 174/113/34
f 207/78/34 175/114/34 176/115/34
f 209/77/34 208/69/34 176/115/34
f 209/77/34 177/116/34 178/117/34
f 210/76/34 178/117/34 179/118/34
f 211/75/34 179/118/34 180/119/34
f 213/73/34 212/74/34 180/119/34
f 213/73/34 181/120/34 182/121/34
f 215/93/34 214/72/34 182/121/34
f 215/93/34 183/122/34 184/123/34
f 217/92/34 216/70/34 184/123/34
f 217/92/34 185/124/34 186/125/34
f 218/91/34 186/125/34 187/126/34
f 219/90/34 187/126/34 188/127/34
f 221/87/34 220/86/34 188/127/34
f 221/87/34 189/128/34 190/129/34
f 223/97/34 222/95/34 190/129/34
f 223/97/34 191/130/34 192/131/34
f 193/88/34 224/71/34 192/131/34
f 130/89/18 194/89/18 195/94/18
f 105/17/8 169/17/8 168/15/8
f 157/87/13 221/87/13 222/95/13
f 131/94/19 195/94/19 196/96/19
f 106/19/9 170/19/9 169/17/9
f 158/95/14 222/95/14 223/97/14
f 132/96/20 196/96/20 197/98/20
f 107/21/10 171/21/10 170/19/10
f 159/97/15 223/97/15 224/71/15
f 133/98/21 197/98/21 198/99/21
f 108/23/11 172/23/11 171/21/11
f 160/71/16 224/71/16 193/88/16
f 134/99/22 198/99/22 199/100/22
f 109/25/12 173/25/12 172/23/12
f 135/100/23 199/100/23 200/85/23
f 110/27/13 174/27/13 173/25/13
f 136/85/24 200/85/24 201/84/24
f 111/29/14 175/29/14 174/27/14
f 137/84/25 201/84/25 202/83/25
f 112/31/15 176/31/15 175/29/15
f 138/83/26 202/83/26 203/82/26
f 113/33/16 177/33/16 176/31/16
f 139/82/27 203/82/27 204/81/27
f 114/35/17 178/35/17 177/33/17
f 140/81/28 204/81/28 205/80/28
f 115/37/18 179/37/18 178/35/18
f 141/80/29 205/80/29 206/79/29
f 116/39/19 180/39/19 179/37/19
f 142/79/30 206/79/30 207/78/30
f 117/41/20 181/41/20 180/39/20
f 143/78/32 207/78/32 208/69/32
f 118/43/21 182/43/21 181/41/21
