# Blender 4.4.0
# www.blender.org
mtllib room.mtl
o floor
v -5.000000 0.000000 5.000000
v 5.000000 0.000000 5.000000
v -5.000000 0.000000 -5.000000
v 5.000000 0.000000 -5.000000
vn -0.0000 1.0000 -0.0000
vt 0.000000 0.000000
vt 1.000000 1.000000
vt 0.000000 1.000000
vt 1.000000 0.000000
s 0
usemtl floor
f 2/1/1 3/2/1 1/3/1
f 2/1/1 4/4/1 3/2/1
o wall_z
v -5.000000 0.000000 -5.000000
v -5.000000 3.000000 -5.000000
v 5.000000 3.000000 -5.000000
v -5.000000 1.500000 -5.000000
v 5.000000 1.500000 -5.000000
v -5.000000 1.450000 -4.980000
v 5.000000 1.450000 -4.980000
v -5.000000 1.500000 -4.980000
v 5.000000 1.500000 -4.980000
v 5.000000 0.000000 -5.000000
v -5.000000 1.450000 -5.000000
v 5.000000 1.450000 -5.000000
v 4.420000 1.500000 -5.000000
v 4.215000 1.500000 -5.000000
v 3.635000 1.500000 -5.000000
v 3.430000 1.500000 -5.000000
v 2.850000 1.500000 -5.000000
v 2.645000 1.500000 -5.000000
v 2.065000 1.500000 -5.000000
v 1.860000 1.500000 -5.000000
v 1.280000 1.500000 -5.000000
v 1.075000 1.500000 -5.000000
v 0.495000 1.500000 -5.000000
v 0.290000 1.500000 -5.000000
v -0.290000 1.500000 -5.000000
v -0.495000 1.500000 -5.000000
v -1.075000 1.500000 -5.000000
v -1.280000 1.500000 -5.000000
v -1.860040 1.500000 -5.000000
v -2.065000 1.500000 -5.000000
v -2.650000 1.500000 -5.000000
v -2.850000 1.500000 -5.000000
v -3.430000 1.500000 -5.000000
v -3.635000 1.500000 -5.000000
v -4.215000 1.500000 -5.000000
v -4.420000 1.500000 -5.000000
v -4.215000 2.200000 -5.000000
v -3.430000 2.550000 -5.000000
v -1.859960 2.200000 -5.000000
v -1.075000 2.550000 -5.000000
v 0.495000 2.200000 -5.000000
v 1.280000 2.550000 -5.000000
v 2.850000 2.200000 -5.000000
v 3.635000 2.550000 -5.000000
v -2.650000 0.550000 -5.000000
v -0.290000 0.550000 -5.000000
v 2.065000 0.550000 -5.000000
v 4.420000 0.550000 -5.000000
vn -0.0000 1.0000 -0.0000
vn -0.0000 -0.0000 1.0000
vn -1.0000 -0.0000 -0.0000
vn 1.0000 -0.0000 -0.0000
vt 0.000000 0.000000
vt 0.643829 1.000000
vt 1.000000 1.000000
vt 0.389976 1.000000
vt 0.000000 1.000000
vt 0.720169 1.000000
vt 0.469493 1.000000
vt 0.446421 1.000000
vt 0.469501 1.000000
vt 0.526954 1.000000
vt 0.552377 1.000000
vt 0.553172 1.000000
vt 0.606455 1.000000
vt 0.645427 1.000000
vt 0.689965 1.000000
vt 0.389964 1.000000
vt 0.305674 1.000000
vt 0.356555 1.000000
vt 0.230123 1.000000
vt 0.278629 1.000000
vt 0.305682 1.000000
vt 0.718576 1.000000
vt 0.762301 1.000000
vt 0.796501 1.000000
vt 0.798161 1.000000
vt 0.839416 1.000000
vt 0.879210 1.000000
vt 0.879248 1.000000
vt 0.907798 1.000000
vt 0.951569 1.000000
vt 0.948368 1.000000
vt 0.033141 1.000000
vt 0.069790 1.000000
vt 0.069790 1.000000
vt 0.108418 1.000000
vt 0.142668 1.000000
vt 0.142652 1.000000
vt 0.195938 1.000000
vt 0.230138 1.000000
s 0
usemtl bottom_wall
f 16/5/4 13/5/4 9/5/4
f 12/5/5 15/5/5 8/5/5
f 5/9/3 51/10/3 50/11/3
f 16/5/4 11/5/4 13/5/4
f 12/5/5 10/5/5 15/5/5
f 49/43/3 36/42/3 37/41/3
f 37/41/3 42/40/3 38/39/3
f 39/38/3 41/37/3 40/36/3
f 49/43/3 37/41/3 38/39/3
f 49/43/3 38/39/3 39/38/3
f 34/24/3 35/23/3 49/43/3
f 33/21/3 43/25/3 34/24/3
f 31/20/3 44/8/3 32/22/3
f 33/21/3 34/24/3 49/43/3
f 32/22/3 33/21/3 49/43/3
f 49/43/3 39/38/3 40/36/3
f 40/36/3 8/9/3 15/9/3
f 16/7/3 9/7/3 17/35/3
f 52/34/3 18/33/3 19/32/3
f 16/7/3 17/35/3 52/34/3
f 40/36/3 15/9/3 5/9/3
f 31/20/3 32/22/3 49/43/3
f 49/43/3 40/36/3 5/9/3
f 14/7/3 16/7/3 52/34/3
f 19/32/3 48/31/3 20/30/3
f 5/9/3 14/7/3 52/34/3
f 52/34/3 19/32/3 20/30/3
f 21/29/3 47/28/3 22/27/3
f 52/34/3 20/30/3 21/29/3
f 30/12/3 31/20/3 49/43/3
f 28/14/3 29/13/3 50/11/3
f 50/11/3 30/12/3 49/43/3
f 52/34/3 21/29/3 22/27/3
f 22/27/3 23/26/3 51/10/3
f 51/10/3 24/19/3 25/18/3
f 25/18/3 46/6/3 26/17/3
f 27/16/3 45/15/3 28/14/3
f 51/10/3 25/18/3 26/17/3
f 27/16/3 28/14/3 50/11/3
f 51/10/3 26/17/3 27/16/3
f 52/34/3 22/27/3 51/10/3
f 50/11/3 49/43/3 5/9/3
f 51/10/3 27/16/3 50/11/3
f 5/9/3 52/34/3 51/10/3
usemtl top_wall
f 15/5/2 11/5/2 16/5/2
f 8/5/2 13/5/2 9/5/2
f 13/5/3 10/5/3 11/5/3
f 46/6/3 7/7/3 44/8/3
f 15/5/2 10/5/2 11/5/2
f 8/5/2 12/5/2 13/5/2
f 13/5/3 12/5/3 10/5/3
f 30/12/3 50/11/3 29/13/3
f 29/13/3 28/14/3 45/15/3
f 45/15/3 27/16/3 26/17/3
f 46/6/3 25/18/3 24/19/3
f 45/15/3 26/17/3 46/6/3
f 30/12/3 29/13/3 45/15/3
f 44/8/3 31/20/3 30/12/3
f 33/21/3 32/22/3 44/8/3
f 35/23/3 34/24/3 43/25/3
f 43/25/3 33/21/3 44/8/3
f 44/8/3 30/12/3 45/15/3
f 44/8/3 45/15/3 46/6/3
f 24/19/3 51/10/3 23/26/3
f 23/26/3 22/27/3 47/28/3
f 47/28/3 21/29/3 20/30/3
f 48/31/3 19/32/3 18/33/3
f 47/28/3 20/30/3 48/31/3
f 24/19/3 23/26/3 47/28/3
f 46/6/3 24/19/3 47/28/3
f 46/6/3 47/28/3 48/31/3
f 18/33/3 52/34/3 17/35/3
f 17/35/3 9/7/3 7/7/3
f 6/9/3 8/9/3 40/36/3
f 41/37/3 39/38/3 38/39/3
f 6/9/3 40/36/3 41/37/3
f 18/33/3 17/35/3 7/7/3
f 48/31/3 18/33/3 7/7/3
f 41/37/3 38/39/3 42/40/3
f 42/40/3 37/41/3 36/42/3
f 36/42/3 49/43/3 35/23/3
f 36/42/3 35/23/3 43/25/3
f 6/9/3 41/37/3 42/40/3
f 42/40/3 36/42/3 43/25/3
f 42/40/3 43/25/3 44/8/3
f 7/7/3 6/9/3 42/40/3
f 46/6/3 48/31/3 7/7/3
f 7/7/3 42/40/3 44/8/3
o wall_x
v 5.000000 0.000000 -5.000000
v 5.000000 3.000000 -5.000000
v 5.000000 3.000000 5.000000
v 5.000000 1.500000 -5.000000
v 5.000000 1.500000 5.000000
v 4.980000 1.450000 -5.000000
v 4.980000 1.450000 5.000000
v 4.980000 1.500000 -5.000000
v 4.980000 1.500000 5.000000
v 5.000000 0.000000 5.000000
v 5.000000 1.450000 -5.000000
v 5.000000 1.450000 5.000000
v 5.000000 1.500000 4.420000
v 5.000000 1.500000 4.215000
v 5.000000 1.500000 3.635000
v 5.000000 1.500000 3.430000
v 5.000000 1.500000 2.850000
v 5.000000 1.500000 2.645000
v 5.000000 1.500000 2.065000
v 5.000000 1.500000 1.860000
v 5.000000 1.500000 1.280000
v 5.000000 1.500000 1.075000
v 5.000000 1.500000 0.495000
v 5.000000 1.500000 0.290000
v 5.000000 1.500000 -0.290000
v 5.000000 1.500000 -0.495000
v 5.000000 1.500000 -1.075000
v 5.000000 1.500000 -1.280000
v 5.000000 1.500000 -1.860040
v 5.000000 1.500000 -2.065000
v 5.000000 1.500000 -2.650000
v 5.000000 1.500000 -2.850000
v 5.000000 1.500000 -3.430000
v 5.000000 1.500000 -3.635000
v 5.000000 1.500000 -4.215000
v 5.000000 1.500000 -4.420000
v 5.000000 2.200000 -4.215000
v 5.000000 2.550000 -3.430000
v 5.000000 2.200000 -1.859960
v 5.000000 2.550000 -1.075000
v 5.000000 2.200000 0.495000
v 5.000000 2.550000 1.280000
v 5.000000 2.200000 2.850000
v 5.000000 2.550000 3.635000
v 5.000000 0.550000 -2.650000
v 5.000000 0.550000 -0.290000
v 5.000000 0.550000 2.065000
v 5.000000 0.550000 4.420000
vn -0.0000 1.0000 -0.0000
vn 1.0000 -0.0000 -0.0000
vn -0.0000 -0.0000 -1.0000
vn -0.0000 -0.0000 1.0000
vt 0.000000 0.000000
vt 0.389976 1.000000
vt 0.142668 1.000000
vt 1.000000 1.000000
vt 0.469493 1.000000
vt 0.720169 1.000000
vt 0.000000 1.000000
vt 0.446421 1.000000
vt 0.389964 1.000000
vt 0.356555 1.000000
vt 0.305674 1.000000
vt 0.305682 1.000000
vt 0.278629 1.000000
vt 0.230123 1.000000
vt 0.469501 1.000000
vt 0.552377 1.000000
vt 0.526954 1.000000
vt 0.606455 1.000000
vt 0.553172 1.000000
vt 0.689965 1.000000
vt 0.645427 1.000000
vt 0.643829 1.000000
vt 0.718576 1.000000
vt 0.796501 1.000000
vt 0.762301 1.000000
vt 0.839416 1.000000
vt 0.798161 1.000000
vt 0.907798 1.000000
vt 0.879248 1.000000
vt 0.879210 1.000000
vt 0.948368 1.000000
vt 0.951569 1.000000
vt 0.033141 1.000000
vt 0.108418 1.000000
vt 0.069790 1.000000
vt 0.069790 1.000000
vt 0.195938 1.000000
vt 0.142652 1.000000
vt 0.230138 1.000000
s 0
usemtl bottom_wall
f 64/44/8 61/44/8 57/44/8
f 60/44/9 63/44/9 56/44/9
f 98/48/7 99/49/7 53/50/7
f 64/44/8 59/44/8 61/44/8
f 60/44/9 58/44/9 63/44/9
f 85/81/7 84/80/7 97/82/7
f 97/82/7 83/57/7 82/56/7
f 82/56/7 91/55/7 81/54/7
f 80/53/7 92/45/7 79/52/7
f 97/82/7 82/56/7 81/54/7
f 97/82/7 81/54/7 80/53/7
f 86/77/7 90/46/7 85/81/7
f 97/82/7 80/53/7 79/52/7
f 86/77/7 85/81/7 97/82/7
f 88/76/7 89/79/7 87/78/7
f 87/78/7 86/77/7 97/82/7
f 97/82/7 79/52/7 78/51/7
f 98/48/7 77/58/7 76/60/7
f 97/82/7 78/51/7 98/48/7
f 88/76/7 87/78/7 97/82/7
f 63/50/7 56/50/7 88/76/7
f 65/74/7 57/47/7 64/47/7
f 67/72/7 66/71/7 100/75/7
f 100/75/7 65/74/7 64/47/7
f 53/50/7 63/50/7 88/76/7
f 53/50/7 88/76/7 97/82/7
f 100/75/7 64/47/7 62/47/7
f 68/69/7 96/73/7 67/72/7
f 100/75/7 62/47/7 53/50/7
f 68/69/7 67/72/7 100/75/7
f 70/68/7 95/67/7 69/70/7
f 69/70/7 68/69/7 100/75/7
f 53/50/7 97/82/7 98/48/7
f 76/60/7 93/59/7 75/62/7
f 98/48/7 76/60/7 75/62/7
f 74/61/7 94/65/7 73/64/7
f 98/48/7 75/62/7 74/61/7
f 70/68/7 69/70/7 100/75/7
f 99/49/7 71/66/7 70/68/7
f 73/64/7 72/63/7 99/49/7
f 98/48/7 74/61/7 73/64/7
f 99/49/7 70/68/7 100/75/7
f 98/48/7 73/64/7 99/49/7
f 99/49/7 100/75/7 53/50/7
usemtl top_wall
f 63/44/6 59/44/6 64/44/6
f 56/44/6 61/44/6 57/44/6
f 58/44/7 61/44/7 59/44/7
f 92/45/7 90/46/7 55/47/7
f 63/44/6 58/44/6 59/44/6
f 56/44/6 60/44/6 61/44/6
f 58/44/7 60/44/7 61/44/7
f 78/51/7 79/52/7 92/45/7
f 92/45/7 80/53/7 81/54/7
f 91/55/7 82/56/7 83/57/7
f 92/45/7 81/54/7 91/55/7
f 77/58/7 98/48/7 78/51/7
f 77/58/7 78/51/7 92/45/7
f 93/59/7 76/60/7 77/58/7
f 74/61/7 75/62/7 93/59/7
f 72/63/7 73/64/7 94/65/7
f 94/65/7 74/61/7 93/59/7
f 93/59/7 77/58/7 92/45/7
f 94/65/7 93/59/7 92/45/7
f 71/66/7 99/49/7 72/63/7
f 71/66/7 72/63/7 94/65/7
f 95/67/7 70/68/7 71/66/7
f 68/69/7 69/70/7 95/67/7
f 66/71/7 67/72/7 96/73/7
f 96/73/7 68/69/7 95/67/7
f 95/67/7 71/66/7 94/65/7
f 96/73/7 95/67/7 94/65/7
f 65/74/7 100/75/7 66/71/7
f 65/74/7 66/71/7 96/73/7
f 55/47/7 57/47/7 65/74/7
f 88/76/7 56/50/7 54/50/7
f 86/77/7 87/78/7 89/79/7
f 89/79/7 88/76/7 54/50/7
f 55/47/7 65/74/7 96/73/7
f 55/47/7 96/73/7 94/65/7
f 90/46/7 86/77/7 89/79/7
f 84/80/7 85/81/7 90/46/7
f 83/57/7 97/82/7 84/80/7
f 91/55/7 83/57/7 84/80/7
f 90/46/7 89/79/7 54/50/7
f 91/55/7 84/80/7 90/46/7
f 55/47/7 94/65/7 92/45/7
f 92/45/7 91/55/7 90/46/7
f 90/46/7 54/50/7 55/47/7
o wall_z_min
v 5.000000 0.000000 5.000000
v 5.000000 3.000000 5.000000
v -5.000000 3.000000 5.000000
v 5.000000 1.500000 5.000000
v -5.000000 1.500000 5.000000
v 5.000000 1.450000 4.980000
v -5.000000 1.450000 4.980000
v 5.000000 1.500000 4.980000
v -5.000000 1.500000 4.980000
v -5.000000 0.000000 5.000000
v 5.000000 1.450000 5.000000
v -5.000000 1.450000 5.000000
v -4.420000 1.500000 5.000000
v -4.215000 1.500000 5.000000
v -3.635000 1.500000 5.000000
v -3.430000 1.500000 5.000000
v -2.849999 1.500000 5.000000
v -2.645000 1.500000 5.000000
v -2.065000 1.500000 5.000000
v -1.860000 1.500000 5.000000
v -1.279999 1.500000 5.000000
v -1.075000 1.500000 5.000000
v -0.495000 1.500000 5.000000
v -0.290000 1.500000 5.000000
v 0.290000 1.500000 5.000000
v 0.495000 1.500000 5.000000
v 1.075001 1.500000 5.000000
v 1.280000 1.500000 5.000000
v 1.860040 1.500000 5.000000
v 2.065001 1.500000 5.000000
v 2.650001 1.500000 5.000000
v 2.850000 1.500000 5.000000
v 3.430001 1.500000 5.000000
v 3.635000 1.500000 5.000000
v 4.215001 1.500000 5.000000
v 4.420001 1.500000 5.000000
v 4.215001 2.200000 5.000000
v 3.430001 2.550000 5.000000
v 1.859961 2.200000 5.000000
v 1.075001 2.550000 5.000000
v -0.495000 2.200000 5.000000
v -1.279999 2.550000 5.000000
v -2.849999 2.200000 5.000000
v -3.635000 2.550000 5.000000
v 2.650001 0.550000 5.000000
v 0.290000 0.550000 5.000000
v -2.065000 0.550000 5.000000
v -4.420000 0.550000 5.000000
vn -0.0000 1.0000 -0.0000
vn -0.0000 -0.0000 1.0000
vn 1.0000 -0.0000 -0.0000
vn -1.0000 -0.0000 -0.0000
vt 0.000000 0.000000
vt 0.389976 1.000000
vt 0.142668 1.000000
vt 1.000000 1.000000
vt 0.469493 1.000000
vt 0.720169 1.000000
vt 0.000000 1.000000
vt 0.446421 1.000000
vt 0.389964 1.000000
vt 0.356555 1.000000
vt 0.305674 1.000000
vt 0.305682 1.000000
vt 0.278629 1.000000
vt 0.230123 1.000000
vt 0.469501 1.000000
vt 0.552377 1.000000
vt 0.526954 1.000000
vt 0.606455 1.000000
vt 0.553172 1.000000
vt 0.689965 1.000000
vt 0.645427 1.000000
vt 0.643829 1.000000
vt 0.718576 1.000000
vt 0.796501 1.000000
vt 0.762301 1.000000
vt 0.839416 1.000000
vt 0.798161 1.000000
vt 0.907798 1.000000
vt 0.879248 1.000000
vt 0.879210 1.000000
vt 0.948368 1.000000
vt 0.951569 1.000000
vt 0.033141 1.000000
vt 0.108418 1.000000
vt 0.069790 1.000000
vt 0.069790 1.000000
vt 0.195938 1.000000
vt 0.142652 1.000000
vt 0.230138 1.000000
s 0
usemtl bottom_wall
f 112/83/12 109/83/12 105/83/12
f 108/83/13 111/83/13 104/83/13
f 146/87/11 147/88/11 101/89/11
f 112/83/12 107/83/12 109/83/12
f 108/83/13 106/83/13 111/83/13
f 133/120/11 132/119/11 145/121/11
f 145/121/11 131/96/11 130/95/11
f 130/95/11 139/94/11 129/93/11
f 128/92/11 140/84/11 127/91/11
f 145/121/11 130/95/11 129/93/11
f 145/121/11 129/93/11 128/92/11
f 134/116/11 138/85/11 133/120/11
f 145/121/11 128/92/11 127/91/11
f 134/116/11 133/120/11 145/121/11
f 136/115/11 137/118/11 135/117/11
f 135/117/11 134/116/11 145/121/11
f 145/121/11 127/91/11 126/90/11
f 146/87/11 125/97/11 124/99/11
f 145/121/11 126/90/11 146/87/11
f 136/115/11 135/117/11 145/121/11
f 111/89/11 104/89/11 136/115/11
f 113/113/11 105/86/11 112/86/11
f 115/111/11 114/110/11 148/114/11
f 148/114/11 113/113/11 112/86/11
f 101/89/11 111/89/11 136/115/11
f 101/89/11 136/115/11 145/121/11
f 148/114/11 112/86/11 110/86/11
f 116/108/11 144/112/11 115/111/11
f 148/114/11 110/86/11 101/89/11
f 116/108/11 115/111/11 148/114/11
f 118/107/11 143/106/11 117/109/11
f 117/109/11 116/108/11 148/114/11
f 101/89/11 145/121/11 146/87/11
f 124/99/11 141/98/11 123/101/11
f 146/87/11 124/99/11 123/101/11
f 122/100/11 142/104/11 121/103/11
f 146/87/11 123/101/11 122/100/11
f 118/107/11 117/109/11 148/114/11
f 147/88/11 119/105/11 118/107/11
f 121/103/11 120/102/11 147/88/11
f 146/87/11 122/100/11 121/103/11
f 147/88/11 118/107/11 148/114/11
f 146/87/11 121/103/11 147/88/11
f 147/88/11 148/114/11 101/89/11
usemtl top_wall
f 111/83/10 107/83/10 112/83/10
f 104/83/10 109/83/10 105/83/10
f 106/83/11 109/83/11 107/83/11
f 140/84/11 138/85/11 103/86/11
f 111/83/10 106/83/10 107/83/10
f 104/83/10 108/83/10 109/83/10
f 106/83/11 108/83/11 109/83/11
f 126/90/11 127/91/11 140/84/11
f 140/84/11 128/92/11 129/93/11
f 139/94/11 130/95/11 131/96/11
f 140/84/11 129/93/11 139/94/11
f 125/97/11 146/87/11 126/90/11
f 125/97/11 126/90/11 140/84/11
f 141/98/11 124/99/11 125/97/11
f 122/100/11 123/101/11 141/98/11
f 120/102/11 121/103/11 142/104/11
f 142/104/11 122/100/11 141/98/11
f 141/98/11 125/97/11 140/84/11
f 142/104/11 141/98/11 140/84/11
f 119/105/11 147/88/11 120/102/11
f 119/105/11 120/102/11 142/104/11
f 143/106/11 118/107/11 119/105/11
f 116/108/11 117/109/11 143/106/11
f 114/110/11 115/111/11 144/112/11
f 144/112/11 116/108/11 143/106/11
f 143/106/11 119/105/11 142/104/11
f 144/112/11 143/106/11 142/104/11
f 113/113/11 148/114/11 114/110/11
f 113/113/11 114/110/11 144/112/11
f 103/86/11 105/86/11 113/113/11
f 136/115/11 104/89/11 102/89/11
f 134/116/11 135/117/11 137/118/11
f 137/118/11 136/115/11 102/89/11
f 103/86/11 113/113/11 144/112/11
f 103/86/11 144/112/11 142/104/11
f 138/85/11 134/116/11 137/118/11
f 132/119/11 133/120/11 138/85/11
f 131/96/11 145/121/11 132/119/11
f 139/94/11 131/96/11 132/119/11
f 138/85/11 137/118/11 102/89/11
f 139/94/11 132/119/11 138/85/11
f 103/86/11 142/104/11 140/84/11
f 140/84/11 139/94/11 138/85/11
f 138/85/11 102/89/11 103/86/11
o wall_x_min
v -5.000000 0.000000 5.000000
v -5.000000 3.000000 5.000000
v -5.000000 3.000000 -5.000000
v -5.000000 1.500000 5.000000
v -5.000000 1.500000 -5.000000
v -4.980000 1.450000 5.000000
v -4.980000 1.450000 -5.000000
v -4.980000 1.500000 5.000000
v -4.980000 1.500000 -5.000000
v -5.000000 0.000000 -5.000000
v -5.000000 1.450000 5.000000
v -5.000000 1.450000 -5.000000
v -5.000000 1.500000 -4.420000
v -5.000000 1.500000 -4.215000
v -5.000000 1.500000 -3.635000
v -5.000000 1.500000 -3.430000
v -5.000000 1.500000 -2.850000
v -5.000000 1.500000 -2.645000
v -5.000000 1.500000 -2.065000
v -5.000000 1.500000 -1.860000
v -5.000000 1.500000 -1.280000
v -5.000000 1.500000 -1.075000
v -5.000000 1.500000 -0.495000
v -5.000000 1.500000 -0.290000
v -5.000000 1.500000 0.290000
v -5.000000 1.500000 0.495000
v -5.000000 1.500000 1.075000
v -5.000000 1.500000 1.280000
v -5.000000 1.500000 1.860040
v -5.000000 1.500000 2.065000
v -5.000000 1.500000 2.650000
v -5.000000 1.500000 2.850000
v -5.000000 1.500000 3.430000
v -5.000000 1.500000 3.635000
v -5.000000 1.500000 4.215000
v -5.000000 1.500000 4.420000
v -5.000000 2.200000 4.215000
v -5.000000 2.550000 3.430000
v -5.000000 2.200000 1.859961
v -5.000000 2.550000 1.075000
v -5.000000 2.200000 -0.495000
v -5.000000 2.550000 -1.280000
v -5.000000 2.200000 -2.850000
v -5.000000 2.550000 -3.635000
v -5.000000 0.550000 2.650000
v -5.000000 0.550000 0.290000
v -5.000000 0.550000 -2.065000
v -5.000000 0.550000 -4.420000
vn -0.0000 1.0000 -0.0000
vn 1.0000 -0.0000 -0.0000
vn -0.0000 -0.0000 1.0000
vn -0.0000 -0.0000 -1.0000
vt 0.000000 0.000000
vt 0.643829 1.000000
vt 1.000000 1.000000
vt 0.389976 1.000000
vt 0.000000 1.000000
vt 0.720169 1.000000
vt 0.469493 1.000000
vt 0.446421 1.000000
vt 0.469501 1.000000
vt 0.526954 1.000000
vt 0.552377 1.000000
vt 0.553172 1.000000
vt 0.606455 1.000000
vt 0.645427 1.000000
vt 0.689965 1.000000
vt 0.389964 1.000000
vt 0.305674 1.000000
vt 0.356555 1.000000
vt 0.230123 1.000000
vt 0.278629 1.000000
vt 0.305682 1.000000
vt 0.718576 1.000000
vt 0.762301 1.000000
vt 0.796501 1.000000
vt 0.798161 1.000000
vt 0.839416 1.000000
vt 0.879210 1.000000
vt 0.879248 1.000000
vt 0.907798 1.000000
vt 0.951569 1.000000
vt 0.948368 1.000000
vt 0.033141 1.000000
vt 0.069790 1.000000
vt 0.069790 1.000000
vt 0.108418 1.000000
vt 0.142668 1.000000
vt 0.142652 1.000000
vt 0.195938 1.000000
vt 0.230138 1.000000
s 0
usemtl bottom_wall
f 160/122/16 157/122/16 153/122/16
f 156/122/17 159/122/17 152/122/17
f 149/126/15 195/127/15 194/128/15
f 160/122/16 155/122/16 157/122/16
f 156/122/17 154/122/17 159/122/17
f 193/160/15 180/159/15 181/158/15
f 181/158/15 186/157/15 182/156/15
f 183/155/15 185/154/15 184/153/15
f 193/160/15 181/158/15 182/156/15
f 193/160/15 182/156/15 183/155/15
f 178/141/15 179/140/15 193/160/15
f 177/138/15 187/142/15 178/141/15
f 175/137/15 188/125/15 176/139/15
f 177/138/15 178/141/15 193/160/15
f 176/139/15 177/138/15 193/160/15
f 193/160/15 183/155/15 184/153/15
f 184/153/15 152/126/15 159/126/15
f 160/124/15 153/124/15 161/152/15
f 196/151/15 162/150/15 163/149/15
f 160/124/15 161/152/15 196/151/15
f 184/153/15 159/126/15 149/126/15
f 175/137/15 176/139/15 193/160/15
f 193/160/15 184/153/15 149/126/15
f 158/124/15 160/124/15 196/151/15
f 163/149/15 192/148/15 164/147/15
f 149/126/15 158/124/15 196/151/15
f 196/151/15 163/149/15 164/147/15
f 165/146/15 191/145/15 166/144/15
f 196/151/15 164/147/15 165/146/15
f 174/129/15 175/137/15 193/160/15
f 172/131/15 173/130/15 194/128/15
f 194/128/15 174/129/15 193/160/15
f 196/151/15 165/146/15 166/144/15
f 166/144/15 167/143/15 195/127/15
f 195/127/15 168/136/15 169/135/15
f 169/135/15 190/123/15 170/134/15
f 171/133/15 189/132/15 172/131/15
f 195/127/15 169/135/15 170/134/15
f 171/133/15 172/131/15 194/128/15
f 195/127/15 170/134/15 171/133/15
f 196/151/15 166/144/15 195/127/15
f 194/128/15 193/160/15 149/126/15
f 195/127/15 171/133/15 194/128/15
f 149/126/15 196/151/15 195/127/15
usemtl top_wall
f 159/122/14 155/122/14 160/122/14
f 152/122/14 157/122/14 153/122/14
f 157/122/15 154/122/15 155/122/15
f 190/123/15 151/124/15 188/125/15
f 159/122/14 154/122/14 155/122/14
f 152/122/14 156/122/14 157/122/14
f 157/122/15 156/122/15 154/122/15
f 174/129/15 194/128/15 173/130/15
f 173/130/15 172/131/15 189/132/15
f 189/132/15 171/133/15 170/134/15
f 190/123/15 169/135/15 168/136/15
f 189/132/15 170/134/15 190/123/15
f 174/129/15 173/130/15 189/132/15
f 188/125/15 175/137/15 174/129/15
f 177/138/15 176/139/15 188/125/15
f 179/140/15 178/141/15 187/142/15
f 187/142/15 177/138/15 188/125/15
f 188/125/15 174/129/15 189/132/15
f 188/125/15 189/132/15 190/123/15
f 168/136/15 195/127/15 167/143/15
f 167/143/15 166/144/15 191/145/15
f 191/145/15 165/146/15 164/147/15
f 192/148/15 163/149/15 162/150/15
f 191/145/15 164/147/15 192/148/15
f 168/136/15 167/143/15 191/145/15
f 190/123/15 168/136/15 191/145/15
f 190/123/15 191/145/15 192/148/15
f 162/150/15 196/151/15 161/152/15
f 161/152/15 153/124/15 151/124/15
f 150/126/15 152/126/15 184/153/15
f 185/154/15 183/155/15 182/156/15
f 150/126/15 184/153/15 185/154/15
f 162/150/15 161/152/15 151/124/15
f 192/148/15 162/150/15 151/124/15
f 185/154/15 182/156/15 186/157/15
f 186/157/15 181/158/15 180/159/15
f 180/159/15 193/160/15 179/140/15
f 180/159/15 179/140/15 187/142/15
f 150/126/15 185/154/15 186/157/15
f 186/157/15 180/159/15 187/142/15
f 186/157/15 187/142/15 188/125/15
f 151/124/15 150/126/15 186/157/15
f 190/123/15 192/148/15 151/124/15
f 151/124/15 186/157/15 188/125/15
